# xmcd CD database file
#
# Track frame offsets:
#	150
#	27881
#	62915
#	107146
#	133187
#	160584
#	174447
#	210889
#	239577
#	283057
#	306204
#
# Disc length: 4262 seconds
#
# Revision: 0
# Processed by: cddbd v1.5.1PL0 Copyright (c) Steve Scherf et al.
# Submitted via: CDex 1.51
#
DISCID=9710a40b
DTITLE=Alice Coltrane - Translinear Light
DYEAR=2004
DGENRE=Jazz
TTITLE0=Sita Ram
TTITLE1=Walk With Me
TTITLE2=Translinear Light
TTITLE3=Jagadishwar
TTITLE4=The Train
TTITLE5=The Hymn
TTITLE6=Blue Nile
TTITLE7=Crescent
TTITLE8=Leo
TTITLE9=Triloka
TTITLE10=Satya Sai Isha
EXTD=YEAR: 2004
EXTT0=
EXTT1=
EXTT2=
EXTT3=
EXTT4=
EXTT5=
EXTT6=
EXTT7=
EXTT8=
EXTT9=
EXTT10=
PLAYORDER=
